<?xml version="1.0" encoding="UTF-8" ?>
<!DOCTYPE svg PUBLIC "-//W3C//DTD SVG 1.1//EN" "http://www.w3.org/Graphics/SVG/1.1/DTD/svg11.dtd">
<svg width="142pt" height="28pt" viewBox="0 0 142 28" version="1.1" xmlns="http://www.w3.org/2000/svg">
<path fill="#ffffff" d=" M 0.00 0.00 L 142.00 0.00 L 142.00 7.38 C 138.91 7.35 135.83 7.33 132.75 7.31 C 132.62 11.68 132.60 16.05 132.61 20.42 C 135.74 20.40 138.87 20.42 142.00 20.20 L 142.00 28.00 L 0.00 28.00 L 0.00 15.61 C 1.01 23.46 9.22 29.13 16.92 27.34 C 24.56 26.11 30.09 17.66 27.60 10.19 C 25.27 1.85 14.53 -2.15 7.14 2.18 C 3.27 4.16 0.86 8.12 0.00 12.30 L 0.00 0.00 Z" />
<path fill="#7cc576" d=" M 7.14 2.18 C 14.53 -2.15 25.27 1.85 27.60 10.19 C 30.09 17.66 24.56 26.11 16.92 27.34 C 9.22 29.13 1.01 23.46 0.00 15.61 L 0.00 12.30 C 0.86 8.12 3.27 4.16 7.14 2.18 Z" />
<path fill="#ffffff" d=" M 7.34 7.00 C 11.22 7.50 15.58 7.66 18.62 10.46 C 20.48 12.04 20.07 14.65 20.15 16.81 C 18.08 14.42 15.83 12.14 12.99 10.67 C 15.94 13.94 19.69 17.25 19.51 22.08 C 18.59 20.84 17.67 19.59 16.86 18.27 C 14.85 17.78 12.21 18.05 10.88 16.15 C 9.72 13.09 9.07 9.83 7.34 7.00 Z" />
<path fill="#7cc576" d=" M 34.10 7.30 C 37.35 7.33 40.60 7.33 43.85 7.28 C 43.86 7.60 43.90 8.24 43.91 8.56 C 40.64 8.58 37.37 8.58 34.09 8.57 C 34.09 8.25 34.10 7.62 34.10 7.30 Z" />
<path fill="#7cc576" d=" M 58.23 7.31 C 61.25 7.33 64.27 7.34 67.29 7.37 C 67.48 8.46 67.66 9.56 67.83 10.66 C 65.64 10.70 63.47 10.83 61.28 10.70 C 63.06 10.26 64.88 10.02 66.70 9.77 C 66.75 9.55 66.85 9.11 66.90 8.89 C 64.06 8.51 61.19 8.56 58.33 8.56 C 58.30 12.39 58.30 16.22 58.31 20.05 C 61.36 20.00 64.41 19.99 67.46 20.02 L 67.45 18.35 C 65.29 18.31 63.14 18.27 60.98 18.23 L 61.00 17.69 C 63.17 17.70 65.34 17.70 67.51 17.69 C 67.54 18.56 67.57 19.44 67.61 20.31 C 64.49 20.97 61.32 20.92 58.20 20.33 C 58.25 15.99 58.23 11.65 58.23 7.31 Z" />
<path fill="#7cc576" d=" M 69.56 7.34 C 72.71 7.34 75.85 7.35 79.00 7.30 C 78.92 8.40 78.84 9.51 78.75 10.61 C 76.94 10.85 75.07 10.76 73.31 11.25 C 73.45 11.46 73.74 11.87 73.88 12.07 C 75.28 12.47 76.68 12.88 78.09 13.27 C 76.03 13.38 73.98 13.49 71.93 13.63 C 71.99 12.28 72.05 10.93 72.15 9.58 C 74.11 9.85 76.08 10.09 78.05 10.30 C 77.74 9.66 77.41 9.02 77.08 8.39 C 74.58 8.52 72.08 8.63 69.57 8.73 C 69.93 12.48 70.02 16.26 69.67 20.01 C 72.27 19.90 74.95 20.30 77.50 19.75 C 77.39 19.57 77.16 19.19 77.04 19.01 C 75.55 18.62 74.02 18.37 72.55 17.94 C 72.52 17.86 72.46 17.71 72.44 17.64 C 74.61 17.65 76.78 17.65 78.94 17.51 C 78.97 18.80 78.98 20.09 79.00 21.38 C 75.90 20.51 72.63 20.96 69.48 20.34 C 68.87 16.01 69.32 11.67 69.56 7.34 Z" />
<path fill="#565656" d=" M 94.38 17.64 C 90.79 12.74 96.65 5.70 102.18 7.27 C 104.27 9.38 107.20 11.62 106.50 15.02 C 105.90 20.70 97.39 22.32 94.38 17.64 Z" />
<path fill="#565656" d=" M 108.36 7.48 C 108.98 7.45 110.20 7.41 110.82 7.38 C 111.22 10.20 111.21 13.05 111.41 15.89 C 111.36 18.41 115.81 18.60 116.18 16.19 C 116.38 13.64 116.36 11.08 116.40 8.52 C 117.06 8.57 118.37 8.66 119.03 8.71 C 119.02 10.91 119.06 13.12 119.11 15.33 C 119.49 20.64 111.43 22.25 109.03 17.94 C 107.75 14.62 108.38 10.95 108.36 7.48 Z" />
<path fill="#7cc576" d=" M 116.26 7.24 C 117.24 7.30 118.21 7.35 119.19 7.40 C 119.39 10.02 120.61 12.88 119.11 15.33 C 119.06 13.12 119.02 10.91 119.03 8.71 C 118.37 8.66 117.06 8.57 116.40 8.52 C 116.36 11.08 116.38 13.64 116.18 16.19 C 116.23 13.21 116.23 10.23 116.26 7.24 Z" />
<path fill="#565656" d=" M 121.65 13.38 C 120.28 11.09 121.97 8.60 123.93 7.36 C 125.36 7.26 126.81 7.31 128.25 7.33 C 129.07 8.34 129.89 9.35 130.71 10.37 C 128.35 11.26 124.97 9.12 123.56 11.84 C 126.15 13.01 130.70 13.11 130.69 16.88 C 130.77 19.40 127.84 19.97 126.05 20.83 C 124.27 20.17 122.48 19.51 120.71 18.83 C 121.16 18.03 121.63 17.24 122.11 16.46 C 123.99 17.57 126.11 17.99 128.27 17.71 C 127.21 14.80 123.41 15.48 121.65 13.38 Z" />
<path fill="#7cc576" d=" M 132.75 7.31 C 135.83 7.33 138.91 7.35 142.00 7.38 L 142.00 10.35 C 139.76 10.73 137.50 10.96 135.26 11.27 C 135.39 11.62 135.66 12.33 135.79 12.68 C 138.12 12.91 140.98 12.36 141.99 15.16 C 139.75 15.47 137.51 15.71 135.27 15.92 C 135.43 16.36 135.76 17.25 135.93 17.70 C 137.95 17.70 139.97 17.69 142.00 17.69 L 142.00 20.20 C 138.87 20.42 135.74 20.40 132.61 20.42 C 132.60 16.05 132.62 11.68 132.75 7.31 Z" />
<path fill="#565656" d=" M 34.09 8.57 C 37.37 8.58 40.64 8.58 43.91 8.56 L 44.05 10.40 C 42.84 10.42 41.63 10.44 40.43 10.46 C 40.46 13.73 40.47 17.00 40.51 20.27 C 39.76 20.27 38.25 20.27 37.49 20.27 C 37.53 17.00 37.54 13.73 37.57 10.46 C 36.36 10.44 35.15 10.42 33.94 10.40 L 34.09 8.57 Z" />
<path fill="#565656" d=" M 45.50 8.29 C 48.68 8.65 52.82 7.17 55.24 9.85 C 56.66 12.11 55.32 14.64 53.75 16.39 C 54.66 17.68 55.57 18.97 56.49 20.26 C 55.33 20.27 54.17 20.26 53.01 20.26 C 52.13 18.99 51.25 17.72 50.38 16.45 C 49.84 16.44 48.77 16.41 48.23 16.40 C 48.25 17.68 48.27 18.96 48.29 20.25 C 47.36 20.26 46.44 20.28 45.51 20.30 C 45.54 16.30 45.54 12.29 45.50 8.29 Z" />
<path fill="#565656" d=" M 58.33 8.56 C 61.19 8.56 64.06 8.51 66.90 8.89 C 66.85 9.11 66.75 9.55 66.70 9.77 C 64.88 10.02 63.06 10.26 61.28 10.70 C 59.35 15.84 67.40 10.82 67.45 15.29 C 65.32 15.40 63.20 15.44 61.07 15.46 C 61.05 16.01 61.01 17.13 61.00 17.69 L 60.98 18.23 C 63.14 18.27 65.29 18.31 67.45 18.35 L 67.46 20.02 C 64.41 19.99 61.36 20.00 58.31 20.05 C 58.30 16.22 58.30 12.39 58.33 8.56 Z" />
<path fill="#565656" d=" M 69.57 8.73 C 72.08 8.63 74.58 8.52 77.08 8.39 C 77.41 9.02 77.74 9.66 78.05 10.30 C 76.08 10.09 74.11 9.85 72.15 9.58 C 72.05 10.93 71.99 12.28 71.93 13.63 C 73.98 13.49 76.03 13.38 78.09 13.27 L 77.95 15.44 C 75.93 15.44 73.90 15.47 71.88 15.51 C 72.02 16.04 72.30 17.10 72.44 17.64 C 72.46 17.71 72.52 17.86 72.55 17.94 C 74.02 18.37 75.55 18.62 77.04 19.01 C 77.16 19.19 77.39 19.57 77.50 19.75 C 74.95 20.30 72.27 19.90 69.67 20.01 C 70.02 16.26 69.93 12.48 69.57 8.73 Z" />
<path fill="#565656" d=" M 80.72 8.31 C 81.41 8.31 82.78 8.30 83.47 8.29 C 83.48 9.98 83.50 11.67 83.52 13.36 C 85.18 13.35 86.84 13.34 88.50 13.34 C 88.51 11.66 88.51 9.98 88.51 8.30 C 89.26 8.30 90.75 8.30 91.50 8.30 C 91.45 12.36 91.47 16.42 91.49 20.47 C 90.78 20.38 89.37 20.20 88.67 20.11 C 88.54 18.56 88.54 17.01 88.47 15.46 C 86.82 15.46 85.18 15.45 83.54 15.45 C 83.45 17.00 83.46 18.55 83.33 20.09 C 82.68 20.19 81.38 20.40 80.73 20.50 C 80.73 16.44 80.74 12.38 80.72 8.31 Z" />
<path fill="#ffffff" d=" M 48.19 10.27 C 49.85 10.70 52.54 9.82 53.05 12.06 C 52.70 12.86 52.24 13.60 51.68 14.28 C 50.58 14.25 49.49 14.22 48.39 14.19 C 48.32 12.88 48.25 11.58 48.19 10.27 Z" />
<path fill="#ffffff" d=" M 96.34 13.14 C 96.89 10.23 100.05 10.07 102.40 10.50 C 103.09 12.31 104.48 14.32 103.11 16.18 C 101.30 19.92 94.77 17.16 96.34 13.14 Z" />
<path fill="#ffffff" d=" M 135.26 11.27 C 137.50 10.96 139.76 10.73 142.00 10.35 L 142.00 17.69 C 139.97 17.69 137.95 17.70 135.93 17.70 C 135.76 17.25 135.43 16.36 135.27 15.92 C 137.51 15.71 139.75 15.47 141.99 15.16 C 140.98 12.36 138.12 12.91 135.79 12.68 C 135.66 12.33 135.39 11.62 135.26 11.27 Z" />
</svg>
